# xmcd
#
# Track frame offsets:
#	150
#	20177
#	42356
#	57372
#	84119
#	105331
#	131432
#	156318
#	177096
#	202472
#	226427
#	252059
#
# Disc length: 3652 seconds
# Revision: 0
# Processed by: cddbd v1.5.2PL0 Copyright (c) Steve Scherf et al.
# Submitted via: dBpowerAMP V12.0
#
DISCID=9d0e420c
DTITLE=Various Artist - Neo Futurism
DYEAR=2011
DGENRE=Electronic
TTITLE0=Nitzer Ebb - Once You Say (Studio-X Electro Remix)
TTITLE1=Implant - Violence (Studio-X Hard Dance Remix)
TTITLE2=Ayria - Bad List (Studio-X Electro Remix)
TTITLE3=Leæther Strip - Compassion (Studio-X Trance Remix)
TTITLE4=Helalyn Flowers - Your Killer Toy (Studio-X Hard Dance Remix)
TTITLE5=I:Scintilla - Prey On You (Studio-X Hard Dance Remix)
TTITLE6=Unter Null - Godless (Studio-X Hard Dance Remix)
TTITLE7=Acylum - Raise Your Fist (Studio-X Hard Dance Remix)
TTITLE8=Psy'Aviah - No Excuse (Studio-X Hard Dance Remix)
TTITLE9=Essence Of Mind - Wicked Smile (Studio-X Hard Dance Remix)
TTITLE10=Neikka RPM - Warped (Studio-X Hard Dance Remix)
TTITLE11=Freakangel - It's Not A Love Song (Studio-X Hard Dance Remix) 
EXTD=
EXTT0=
EXTT1=
EXTT2=
EXTT3=
EXTT4=
EXTT5=
EXTT6=
EXTT7=
EXTT8=
EXTT9=
EXTT10=
EXTT11=
PLAYORDER=
